# Blender v2.74 (sub 0) OBJ File: 'Potions.blend'
# www.blender.org
o Potion3_Cylinder
v 0.000000 0.000000 -0.040603
v 0.000000 0.025318 -0.040603
v 0.020301 0.000000 -0.035163
v 0.020301 0.025318 -0.035163
v 0.035163 0.000000 -0.020301
v 0.035163 0.025318 -0.020301
v 0.040603 0.000000 0.000000
v 0.040603 0.025318 0.000000
v 0.035163 0.000000 0.020301
v 0.035163 0.025318 0.020301
v 0.020301 0.000000 0.035163
v 0.020301 0.025318 0.035163
v 0.000000 0.000000 0.040603
v 0.000000 0.025318 0.040603
v -0.020301 0.000000 0.035163
v -0.020301 0.025318 0.035163
v -0.035163 0.000000 0.020301
v -0.035163 0.025318 0.020301
v -0.040603 0.000000 0.000000
v -0.040603 0.025318 0.000000
v -0.035163 0.000000 -0.020301
v -0.035163 0.025318 -0.020301
v -0.020301 0.000000 -0.035163
v -0.020301 0.025318 -0.035163
v 0.018243 0.025318 -0.031597
v -0.000000 0.025318 -0.036485
v 0.031597 0.025318 -0.018243
v 0.036485 0.025318 0.000000
v 0.031597 0.025318 0.018243
v 0.018243 0.025318 0.031597
v 0.000000 0.025318 0.036485
v -0.018243 0.025318 0.031597
v -0.031597 0.025318 0.018243
v -0.036485 0.025318 0.000000
v -0.031597 0.025318 -0.018243
v -0.018243 0.025318 -0.031597
v 0.018243 0.231696 -0.031597
v -0.000000 0.231696 -0.036485
v 0.031597 0.231696 -0.018243
v 0.036485 0.231696 0.000000
v 0.031597 0.231696 0.018243
v 0.018243 0.231696 0.031597
v 0.000000 0.231696 0.036485
v -0.018243 0.231696 0.031597
v -0.031597 0.231696 0.018243
v -0.036485 0.231696 0.000000
v -0.031597 0.231696 -0.018243
v -0.018243 0.231696 -0.031597
v -0.000000 0.162903 -0.030519
v -0.000000 0.094111 -0.030519
v -0.015260 0.094111 -0.026430
v -0.015260 0.162903 -0.026430
v -0.026430 0.094111 -0.015259
v -0.026430 0.162903 -0.015259
v -0.030519 0.094111 0.000000
v -0.030519 0.162903 0.000000
v -0.026430 0.094111 0.015259
v -0.026430 0.162903 0.015259
v -0.015259 0.094111 0.026430
v -0.015259 0.162903 0.026430
v 0.000000 0.094111 0.030519
v 0.000000 0.162903 0.030519
v 0.015259 0.094111 0.026430
v 0.015259 0.162903 0.026430
v 0.026430 0.094111 0.015259
v 0.026430 0.162903 0.015259
v 0.030519 0.094111 0.000000
v 0.030519 0.162903 0.000000
v 0.026430 0.094111 -0.015259
v 0.026430 0.162903 -0.015259
v 0.015259 0.094111 -0.026430
v 0.015259 0.162903 -0.026430
v 0.020437 0.231696 -0.035398
v 0.000000 0.231696 -0.040874
v 0.035398 0.231696 -0.020437
v 0.040874 0.231696 0.000000
v 0.035398 0.231696 0.020437
v 0.020437 0.231696 0.035398
v 0.000000 0.231696 0.040874
v -0.020437 0.231696 0.035398
v -0.035398 0.231696 0.020437
v -0.040874 0.231696 0.000000
v -0.035398 0.231696 -0.020437
v -0.020437 0.231696 -0.035398
v 0.020437 0.269243 -0.035398
v 0.000000 0.269243 -0.040874
v 0.035398 0.269243 -0.020437
v 0.040874 0.269243 0.000000
v 0.035398 0.269243 0.020437
v 0.020437 0.269243 0.035398
v 0.000000 0.269243 0.040874
v -0.020437 0.269243 0.035398
v -0.035398 0.269243 0.020437
v -0.040874 0.269243 0.000000
v -0.035398 0.269243 -0.020437
v -0.020437 0.269243 -0.035398
v 0.018595 0.271700 -0.032208
v 0.000000 0.271700 -0.037190
v 0.032208 0.271700 -0.018595
v 0.037190 0.271700 0.000000
v 0.032208 0.271700 0.018595
v 0.018595 0.271700 0.032208
v 0.000000 0.271700 0.037190
v -0.018595 0.271700 0.032208
v -0.032208 0.271700 0.018595
v -0.037190 0.271700 0.000000
v -0.032208 0.271700 -0.018595
v -0.018595 0.271700 -0.032208
v 0.014072 0.271700 -0.024373
v 0.000000 0.271700 -0.028143
v 0.024373 0.271700 -0.014072
v 0.028143 0.271700 0.000000
v 0.024373 0.271700 0.014072
v 0.014072 0.271700 0.024373
v 0.000000 0.271700 0.028143
v -0.014072 0.271700 0.024373
v -0.024373 0.271700 0.014072
v -0.028143 0.271700 0.000000
v -0.024373 0.271700 -0.014072
v -0.014072 0.271700 -0.024373
v 0.014072 0.291883 -0.024373
v -0.000000 0.291883 -0.028143
v 0.024373 0.291883 -0.014072
v 0.028143 0.291883 0.000000
v 0.024373 0.291883 0.014072
v 0.014072 0.291883 0.024373
v 0.000000 0.291883 0.028143
v -0.014072 0.291883 0.024373
v -0.024373 0.291883 0.014072
v -0.028143 0.291883 0.000000
v -0.024373 0.291883 -0.014072
v -0.014072 0.291883 -0.024373
v 0.013022 0.293224 -0.022555
v -0.000000 0.293224 -0.026044
v 0.022555 0.293224 -0.013022
v 0.026044 0.293224 0.000000
v 0.022555 0.293224 0.013022
v 0.013022 0.293224 0.022555
v 0.000000 0.293224 0.026044
v -0.013022 0.293224 0.022555
v -0.022555 0.293224 0.013022
v -0.026044 0.293224 0.000000
v -0.022555 0.293224 -0.013022
v -0.013022 0.293224 -0.022555
v 0.000000 0.000000 -0.040603
v 0.020301 0.000000 -0.035163
v 0.020301 0.025318 -0.035163
v 0.000000 0.025318 -0.040603
v 0.035163 0.000000 -0.020301
v 0.035163 0.025318 -0.020301
v 0.040603 0.000000 0.000000
v 0.040603 0.025318 0.000000
v 0.035163 0.000000 0.020301
v 0.035163 0.025318 0.020301
v 0.020301 0.000000 0.035163
v 0.020301 0.025318 0.035163
v 0.000000 0.000000 0.040603
v 0.000000 0.025318 0.040603
v -0.020301 0.000000 0.035163
v -0.020301 0.025318 0.035163
v -0.035163 0.000000 0.020301
v -0.035163 0.025318 0.020301
v -0.040603 0.000000 0.000000
v -0.040603 0.025318 0.000000
v -0.035163 0.000000 -0.020301
v -0.035163 0.025318 -0.020301
v -0.020301 0.000000 -0.035163
v -0.020301 0.025318 -0.035163
v 0.018243 0.025318 -0.031597
v -0.000000 0.025318 -0.036485
v 0.031597 0.025318 -0.018243
v 0.036485 0.025318 0.000000
v 0.031597 0.025318 0.018243
v 0.018243 0.025318 0.031597
v 0.000000 0.025318 0.036485
v -0.018243 0.025318 0.031597
v -0.031597 0.025318 0.018243
v -0.036485 0.025318 0.000000
v -0.031597 0.025318 -0.018243
v -0.018243 0.025318 -0.031597
v 0.018243 0.231696 -0.031597
v -0.000000 0.231696 -0.036485
v 0.031597 0.231696 -0.018243
v 0.036485 0.231696 0.000000
v 0.031597 0.231696 0.018243
v 0.018243 0.231696 0.031597
v 0.000000 0.231696 0.036485
v -0.018243 0.231696 0.031597
v -0.031597 0.231696 0.018243
v -0.036485 0.231696 0.000000
v -0.031597 0.231696 -0.018243
v -0.018243 0.231696 -0.031597
v 0.020437 0.231696 -0.035398
v 0.000000 0.231696 -0.040874
v 0.035398 0.231696 -0.020437
v 0.040874 0.231696 0.000000
v 0.035398 0.231696 0.020437
v 0.020437 0.231696 0.035398
v 0.000000 0.231696 0.040874
v -0.020437 0.231696 0.035398
v -0.035398 0.231696 0.020437
v -0.040874 0.231696 0.000000
v -0.035398 0.231696 -0.020437
v -0.020437 0.231696 -0.035398
v 0.014072 0.271700 -0.024373
v 0.000000 0.271700 -0.028143
v 0.024373 0.271700 -0.014072
v 0.028143 0.271700 0.000000
v 0.024373 0.271700 0.014072
v 0.014072 0.271700 0.024373
v 0.000000 0.271700 0.028143
v -0.014072 0.271700 0.024373
v -0.024373 0.271700 0.014072
v -0.028143 0.271700 0.000000
v -0.024373 0.271700 -0.014072
v -0.014072 0.271700 -0.024373
vt 0.991654 0.796221
vt 0.921221 0.796221
vt 0.921221 0.743095
vt 0.991654 0.743095
vt 0.921221 0.681750
vt 0.991654 0.681750
vt 0.921221 0.628625
vt 0.991654 0.628625
vt 0.954615 0.176352
vt 0.884182 0.176352
vt 0.884182 0.123226
vt 0.954615 0.123226
vt 0.884182 0.061882
vt 0.954615 0.061882
vt 0.884182 0.008756
vt 0.954615 0.008756
vt 0.954615 0.361460
vt 0.884182 0.361460
vt 0.884182 0.308335
vt 0.954615 0.308335
vt 0.884182 0.246990
vt 0.954615 0.246990
vt 0.884182 0.193864
vt 0.954615 0.193864
vt 0.891574 0.432525
vt 0.962007 0.432525
vt 0.962007 0.485651
vt 0.891574 0.485651
vt 0.729150 0.237697
vt 0.678514 0.207024
vt 0.686614 0.198526
vt 0.732115 0.226088
vt 0.891574 0.546996
vt 0.962007 0.546996
vt 0.962007 0.600121
vt 0.891574 0.600121
vt 0.565171 0.773767
vt 0.565171 0.712423
vt 0.594406 0.659297
vt 0.645042 0.628625
vt 0.703511 0.628625
vt 0.754148 0.659297
vt 0.783382 0.712423
vt 0.783382 0.773767
vt 0.754147 0.826893
vt 0.703511 0.857565
vt 0.645042 0.857565
vt 0.594406 0.826893
vt 0.180316 0.410327
vt 0.218376 0.410327
vt 0.214080 0.611112
vt 0.168579 0.611112
vt 0.649279 0.153898
vt 0.660344 0.150788
vt 0.649279 0.092554
vt 0.660344 0.095665
vt 0.678514 0.039428
vt 0.686614 0.047927
vt 0.729150 0.008756
vt 0.732115 0.020365
vt 0.787619 0.008756
vt 0.784654 0.020365
vt 0.838255 0.039428
vt 0.830155 0.047927
vt 0.867490 0.092554
vt 0.856425 0.095665
vt 0.867490 0.153899
vt 0.856425 0.150788
vt 0.838255 0.207024
vt 0.830155 0.198526
vt 0.787619 0.237697
vt 0.784654 0.226088
vt 0.020138 0.771420
vt 0.046408 0.819158
vt 0.037776 0.828216
vt 0.008346 0.774735
vt 0.262324 0.410327
vt 0.266620 0.611112
vt 0.300385 0.410327
vt 0.312121 0.611112
vt 0.340549 0.410327
vt 0.378609 0.410327
vt 0.374313 0.611112
vt 0.328813 0.611112
vt 0.422557 0.410327
vt 0.426853 0.611112
vt 0.460618 0.410327
vt 0.472354 0.611112
vt 0.140151 0.209542
vt 0.102091 0.209542
vt 0.106387 0.008756
vt 0.151887 0.008756
vt 0.058143 0.209542
vt 0.053847 0.008756
vt 0.020082 0.209542
vt 0.008346 0.008756
vt 0.500782 0.410327
vt 0.538842 0.410327
vt 0.534547 0.611112
vt 0.489046 0.611112
vt 0.582791 0.410327
vt 0.587086 0.611112
vt 0.620851 0.410327
vt 0.632587 0.611112
vt 0.587086 0.008756
vt 0.632587 0.008756
vt 0.620851 0.209541
vt 0.582791 0.209541
vt 0.534547 0.008756
vt 0.538842 0.209541
vt 0.489046 0.008756
vt 0.500782 0.209541
vt 0.053847 0.611112
vt 0.008346 0.611112
vt 0.020082 0.410327
vt 0.058143 0.410327
vt 0.106387 0.611112
vt 0.102091 0.410327
vt 0.151888 0.611112
vt 0.140151 0.410327
vt 0.426853 0.008756
vt 0.472354 0.008756
vt 0.460618 0.209542
vt 0.422557 0.209542
vt 0.374313 0.008756
vt 0.378609 0.209542
vt 0.328812 0.008756
vt 0.340549 0.209542
vt 0.266620 0.008756
vt 0.312121 0.008756
vt 0.300385 0.209542
vt 0.262324 0.209542
vt 0.214080 0.008756
vt 0.218376 0.209542
vt 0.168579 0.008756
vt 0.180316 0.209542
vt 0.753735 0.431408
vt 0.753735 0.484888
vt 0.649279 0.484888
vt 0.649279 0.431408
vt 0.091909 0.846720
vt 0.088750 0.859092
vt 0.144449 0.846720
vt 0.147609 0.859092
vt 0.189950 0.819158
vt 0.198583 0.828215
vt 0.216220 0.771420
vt 0.228013 0.774735
vt 0.216220 0.716297
vt 0.228013 0.712982
vt 0.189950 0.668559
vt 0.198583 0.659501
vt 0.144449 0.640997
vt 0.147609 0.628625
vt 0.091909 0.640997
vt 0.088749 0.628625
vt 0.046408 0.668559
vt 0.037776 0.659501
vt 0.020138 0.716297
vt 0.008346 0.712982
vt 0.358242 0.828215
vt 0.328812 0.774735
vt 0.338711 0.771953
vt 0.365488 0.820613
vt 0.753735 0.546641
vt 0.649279 0.546641
vt 0.753735 0.600122
vt 0.649279 0.600122
vt 0.904530 0.628625
vt 0.904530 0.682105
vt 0.800074 0.682105
vt 0.800074 0.628625
vt 0.904530 0.743858
vt 0.800074 0.743858
vt 0.904530 0.797339
vt 0.800074 0.797339
vt 0.874882 0.431408
vt 0.874882 0.484888
vt 0.770426 0.484888
vt 0.770426 0.431408
vt 0.874882 0.546641
vt 0.770426 0.546641
vt 0.874882 0.600122
vt 0.770426 0.600122
vt 0.904530 0.814851
vt 0.904530 0.868331
vt 0.800074 0.868331
vt 0.800074 0.814851
vt 0.904530 0.930085
vt 0.800074 0.930085
vt 0.904530 0.983565
vt 0.800074 0.983565
vt 0.363021 0.765118
vt 0.383285 0.801942
vt 0.328812 0.712982
vt 0.338711 0.715764
vt 0.358242 0.659501
vt 0.365488 0.667104
vt 0.409216 0.628625
vt 0.411868 0.639010
vt 0.468076 0.628625
vt 0.465423 0.639010
vt 0.519050 0.659501
vt 0.511804 0.667104
vt 0.548479 0.712982
vt 0.538581 0.715764
vt 0.548479 0.774735
vt 0.538581 0.771953
vt 0.519050 0.828215
vt 0.511804 0.820613
vt 0.468076 0.859092
vt 0.465423 0.848707
vt 0.409216 0.859092
vt 0.411868 0.848707
vt 0.312121 0.628625
vt 0.312121 0.665448
vt 0.255974 0.665448
vt 0.255974 0.628625
vt 0.363021 0.722598
vt 0.383285 0.685775
vt 0.418382 0.664515
vt 0.458910 0.664515
vt 0.494007 0.685775
vt 0.514271 0.722598
vt 0.514271 0.765118
vt 0.494007 0.801942
vt 0.458910 0.823202
vt 0.418382 0.823202
vt 0.649279 0.355812
vt 0.649279 0.313292
vt 0.654920 0.314878
vt 0.654920 0.354226
vt 0.312121 0.707968
vt 0.255974 0.707968
vt 0.312121 0.744791
vt 0.255974 0.744791
vt 0.694156 0.875077
vt 0.694156 0.911901
vt 0.638009 0.911901
vt 0.638009 0.875077
vt 0.694156 0.954421
vt 0.638009 0.954421
vt 0.694156 0.991244
vt 0.638009 0.991244
vt 0.621318 0.875077
vt 0.621318 0.911901
vt 0.565171 0.911901
vt 0.565171 0.875077
vt 0.621318 0.954421
vt 0.565171 0.954421
vt 0.621318 0.991244
vt 0.565171 0.991244
vt 0.312121 0.762303
vt 0.312121 0.799127
vt 0.255974 0.799127
vt 0.255974 0.762303
vt 0.312121 0.841647
vt 0.255974 0.841647
vt 0.312121 0.878470
vt 0.255974 0.878470
vt 0.673672 0.388303
vt 0.673672 0.280801
vt 0.706152 0.261127
vt 0.743656 0.261127
vt 0.776135 0.280802
vt 0.794887 0.314878
vt 0.794887 0.354226
vt 0.776135 0.388303
vt 0.743656 0.407977
vt 0.706152 0.407977
vt 0.669543 0.276469
vt 0.704640 0.255209
vt 0.745167 0.255209
vt 0.780265 0.276469
vt 0.800529 0.313292
vt 0.800529 0.355812
vt 0.780265 0.392635
vt 0.745167 0.413895
vt 0.704640 0.413895
vt 0.669542 0.392635
vn 0.000000 0.000000 -1.000000
vn 0.500000 0.000000 -0.866000
vn 0.866000 0.000000 -0.500000
vn 1.000000 0.000000 0.000000
vn 0.866000 0.000000 0.500000
vn 0.500000 0.000000 0.866000
vn 0.000000 0.000000 1.000000
vn -0.500000 0.000000 0.866000
vn -0.866000 0.000000 0.500000
vn -1.000000 0.000000 0.000000
vn -0.866000 0.000000 -0.500000
vn 0.000000 1.000000 0.000000
vn -0.500000 0.000000 -0.866000
vn 0.000000 -1.000000 0.000000
vn 0.000000 -0.043500 -0.999000
vn -0.499500 -0.043500 -0.865200
vn -0.498100 -0.086400 -0.862800
vn 0.000000 -0.086400 -0.996200
vn -0.865200 -0.043500 -0.499500
vn -0.862800 -0.086400 -0.498100
vn -0.999000 -0.043500 0.000000
vn -0.996200 -0.086400 0.000000
vn -0.865200 -0.043500 0.499500
vn -0.862800 -0.086400 0.498100
vn -0.499500 -0.043500 0.865200
vn -0.498100 -0.086400 0.862800
vn 0.000000 -0.043500 0.999000
vn 0.000000 -0.086400 0.996200
vn 0.499500 -0.043500 0.865200
vn 0.498100 -0.086400 0.862800
vn 0.865200 -0.043500 0.499500
vn 0.862800 -0.086400 0.498100
vn 0.999000 -0.043500 0.000000
vn 0.996200 -0.086400 0.000000
vn 0.865200 -0.043500 -0.499500
vn 0.862800 -0.086400 -0.498100
vn 0.499500 -0.043500 -0.865200
vn 0.498100 -0.086400 -0.862800
vn 0.498100 0.086400 -0.862800
vn 0.000000 0.086400 -0.996200
vn 0.000000 0.043500 -0.999000
vn 0.499500 0.043500 -0.865200
vn 0.862800 0.086400 -0.498100
vn 0.865200 0.043500 -0.499500
vn 0.996200 0.086400 0.000000
vn 0.999000 0.043500 0.000000
vn 0.862800 0.086400 0.498100
vn 0.865200 0.043500 0.499500
vn 0.498100 0.086400 0.862800
vn 0.499500 0.043500 0.865200
vn 0.000000 0.086400 0.996200
vn 0.000000 0.043500 0.999000
vn -0.498100 0.086400 0.862800
vn -0.499500 0.043500 0.865200
vn -0.862800 0.086400 0.498100
vn -0.865200 0.043500 0.499500
vn -0.996200 0.086400 0.000000
vn -0.999000 0.043500 0.000000
vn -0.862800 0.086400 -0.498100
vn -0.865200 0.043500 -0.499500
vn -0.498100 0.086400 -0.862800
vn -0.499500 0.043500 -0.865200
vn -0.448500 0.442100 -0.776800
vn 0.000000 0.442100 -0.896900
vn -0.166400 0.943000 -0.288200
vn 0.000000 0.943000 -0.332800
vn -0.776800 0.442100 -0.448500
vn -0.896900 0.442100 0.000000
vn -0.776800 0.442100 0.448500
vn -0.448500 0.442100 0.776800
vn 0.000000 0.442100 0.896900
vn 0.448500 0.442100 0.776800
vn 0.776800 0.442100 0.448500
vn 0.896900 0.442100 0.000000
vn 0.776800 0.442100 -0.448500
vn 0.448500 0.442100 -0.776800
vn -0.288200 0.943000 -0.166400
vn -0.332800 0.943000 0.000000
vn -0.288200 0.943000 0.166400
vn -0.166400 0.943000 0.288200
vn 0.000000 0.943000 0.332800
vn 0.166400 0.943000 0.288200
vn 0.288200 0.943000 0.166400
vn 0.332800 0.943000 0.000000
vn 0.288200 0.943000 -0.166400
vn 0.166400 0.943000 -0.288200
vn -0.446500 0.449800 -0.773500
vn 0.000000 0.449800 -0.893100
vn -0.161200 0.946600 -0.279200
vn 0.000000 0.946600 -0.322300
vn -0.773500 0.449800 -0.446500
vn -0.893100 0.449800 0.000000
vn -0.773500 0.449800 0.446500
vn -0.446500 0.449800 0.773500
vn 0.000000 0.449800 0.893100
vn 0.446500 0.449800 0.773500
vn 0.773500 0.449800 0.446500
vn 0.893100 0.449800 0.000000
vn 0.773500 0.449800 -0.446500
vn 0.446500 0.449800 -0.773500
vn 0.161200 0.946600 -0.279200
vn -0.279200 0.946600 -0.161200
vn -0.322300 0.946600 0.000000
vn -0.279200 0.946600 0.161200
vn -0.161200 0.946600 0.279200
vn 0.000000 0.946600 0.322300
vn 0.161200 0.946600 0.279200
vn 0.279200 0.946600 0.161200
vn 0.322300 0.946600 0.000000
vn 0.279200 0.946600 -0.161200
s 1
f 1/1/1 2/2/1 4/3/2 3/4/2
f 3/4/2 4/3/2 6/5/3 5/6/3
f 5/6/3 6/5/3 8/7/4 7/8/4
f 7/9/4 8/10/4 10/11/5 9/12/5
f 9/12/5 10/11/5 12/13/6 11/14/6
f 11/14/6 12/13/6 14/15/7 13/16/7
f 13/17/7 14/18/7 16/19/8 15/20/8
f 15/20/8 16/19/8 18/21/9 17/22/9
f 17/22/9 18/21/9 20/23/10 19/24/10
f 19/25/10 20/26/10 22/27/11 21/28/11
f 148/29/12 168/30/12 36/31/12 26/32/12
f 23/33/13 24/34/13 2/35/1 1/36/1
f 21/28/11 22/27/11 24/34/13 23/33/13
f 145/37/14 146/38/14 149/39/14 151/40/14 153/41/14 155/42/14 157/43/14 159/44/14 161/45/14 163/46/14 165/47/14 167/48/14
f 49/49/15 52/50/16 48/51/17 38/52/18
f 168/30/12 166/53/12 35/54/12 36/31/12
f 166/53/12 164/55/12 34/56/12 35/54/12
f 164/55/12 162/57/12 33/58/12 34/56/12
f 162/57/12 160/59/12 32/60/12 33/58/12
f 160/59/12 158/61/12 31/62/12 32/60/12
f 158/61/12 156/63/12 30/64/12 31/62/12
f 156/63/12 154/65/12 29/66/12 30/64/12
f 154/65/12 152/67/12 28/68/12 29/66/12
f 152/67/12 150/69/12 27/70/12 28/68/12
f 150/69/12 147/71/12 25/72/12 27/70/12
f 147/71/12 148/29/12 26/32/12 25/72/12
f 182/73/14 192/74/14 84/75/14 74/76/14
f 52/50/16 54/77/19 47/78/20 48/51/17
f 54/77/19 56/79/21 46/80/22 47/78/20
f 56/81/21 58/82/23 45/83/24 46/84/22
f 58/82/23 60/85/25 44/86/26 45/83/24
f 60/85/25 62/87/27 43/88/28 44/86/26
f 62/89/27 64/90/29 42/91/30 43/92/28
f 64/90/29 66/93/31 41/94/32 42/91/30
f 66/93/31 68/95/33 40/96/34 41/94/32
f 68/97/33 70/98/35 39/99/36 40/100/34
f 70/98/35 72/101/37 37/102/38 39/99/36
f 72/101/37 49/103/15 38/104/18 37/102/38
f 169/105/39 170/106/40 50/107/41 71/108/42
f 71/108/42 50/107/41 49/103/15 72/101/37
f 171/109/43 169/105/39 71/108/42 69/110/44
f 69/110/44 71/108/42 72/101/37 70/98/35
f 172/111/45 171/109/43 69/110/44 67/112/46
f 67/112/46 69/110/44 70/98/35 68/97/33
f 173/113/47 172/114/45 67/115/46 65/116/48
f 65/116/48 67/115/46 68/95/33 66/93/31
f 174/117/49 173/113/47 65/116/48 63/118/50
f 63/118/50 65/116/48 66/93/31 64/90/29
f 175/119/51 174/117/49 63/118/50 61/120/52
f 61/120/52 63/118/50 64/90/29 62/89/27
f 176/121/53 175/122/51 61/123/52 59/124/54
f 59/124/54 61/123/52 62/87/27 60/85/25
f 177/125/55 176/121/53 59/124/54 57/126/56
f 57/126/56 59/124/54 60/85/25 58/82/23
f 178/127/57 177/125/55 57/126/56 55/128/58
f 55/128/58 57/126/56 58/82/23 56/81/21
f 179/129/59 178/130/57 55/131/58 53/132/60
f 53/132/60 55/131/58 56/79/21 54/77/19
f 180/133/61 179/129/59 53/132/60 51/134/62
f 51/134/62 53/132/60 54/77/19 52/50/16
f 170/135/40 180/133/61 51/134/62 50/136/41
f 50/136/41 51/134/62 52/50/16 49/49/15
f 194/137/1 204/138/13 96/139/63 86/140/64
f 192/74/14 191/141/14 83/142/14 84/75/14
f 191/141/14 190/143/14 82/144/14 83/142/14
f 190/143/14 189/145/14 81/146/14 82/144/14
f 189/145/14 188/147/14 80/148/14 81/146/14
f 188/147/14 187/149/14 79/150/14 80/148/14
f 187/149/14 186/151/14 78/152/14 79/150/14
f 186/151/14 185/153/14 77/154/14 78/152/14
f 185/153/14 184/155/14 76/156/14 77/154/14
f 184/155/14 183/157/14 75/158/14 76/156/14
f 183/157/14 181/159/14 73/160/14 75/158/14
f 181/159/14 182/73/14 74/76/14 73/160/14
f 86/161/64 96/162/63 108/163/65 98/164/66
f 204/138/13 203/165/11 95/166/67 96/139/63
f 203/165/11 202/167/10 94/168/68 95/166/67
f 202/169/10 201/170/9 93/171/69 94/172/68
f 201/170/9 200/173/8 92/174/70 93/171/69
f 200/173/8 199/175/7 91/176/71 92/174/70
f 199/177/7 198/178/6 90/179/72 91/180/71
f 198/178/6 197/181/5 89/182/73 90/179/72
f 197/181/5 196/183/4 88/184/74 89/182/73
f 196/185/4 195/186/3 87/187/75 88/188/74
f 195/186/3 193/189/2 85/190/76 87/187/75
f 193/189/2 194/191/1 86/192/64 85/190/76
f 98/164/66 108/163/65 120/193/12 110/194/12
f 96/162/63 95/195/67 107/196/77 108/163/65
f 95/195/67 94/197/68 106/198/78 107/196/77
f 94/197/68 93/199/69 105/200/79 106/198/78
f 93/199/69 92/201/70 104/202/80 105/200/79
f 92/201/70 91/203/71 103/204/81 104/202/80
f 91/203/71 90/205/72 102/206/82 103/204/81
f 90/205/72 89/207/73 101/208/83 102/206/82
f 89/207/73 88/209/74 100/210/84 101/208/83
f 88/209/74 87/211/75 99/212/85 100/210/84
f 87/211/75 85/213/76 97/214/86 99/212/85
f 85/213/76 86/161/64 98/164/66 97/214/86
f 206/215/1 216/216/13 132/217/87 122/218/88
f 108/163/65 107/196/77 119/219/12 120/193/12
f 107/196/77 106/198/78 118/220/12 119/219/12
f 106/198/78 105/200/79 117/221/12 118/220/12
f 105/200/79 104/202/80 116/222/12 117/221/12
f 104/202/80 103/204/81 115/223/12 116/222/12
f 103/204/81 102/206/82 114/224/12 115/223/12
f 102/206/82 101/208/83 113/225/12 114/224/12
f 101/208/83 100/210/84 112/226/12 113/225/12
f 100/210/84 99/212/85 111/227/12 112/226/12
f 99/212/85 97/214/86 109/228/12 111/227/12
f 97/214/86 98/164/66 110/194/12 109/228/12
f 122/229/88 132/230/87 144/231/89 134/232/90
f 216/216/13 215/233/11 131/234/91 132/217/87
f 215/233/11 214/235/10 130/236/92 131/234/91
f 214/237/10 213/238/9 129/239/93 130/240/92
f 213/238/9 212/241/8 128/242/94 129/239/93
f 212/241/8 211/243/7 127/244/95 128/242/94
f 211/245/7 210/246/6 126/247/96 127/248/95
f 210/246/6 209/249/5 125/250/97 126/247/96
f 209/249/5 208/251/4 124/252/98 125/250/97
f 208/253/4 207/254/3 123/255/99 124/256/98
f 207/254/3 205/257/2 121/258/100 123/255/99
f 205/257/2 206/259/1 122/260/88 121/258/100
f 133/261/101 134/232/90 144/231/89 143/262/102 142/263/103 141/264/104 140/265/105 139/266/106 138/267/107 137/268/108 136/269/109 135/270/110
f 132/230/87 131/271/91 143/262/102 144/231/89
f 131/271/91 130/272/92 142/263/103 143/262/102
f 130/272/92 129/273/93 141/264/104 142/263/103
f 129/273/93 128/274/94 140/265/105 141/264/104
f 128/274/94 127/275/95 139/266/106 140/265/105
f 127/275/95 126/276/96 138/267/107 139/266/106
f 126/276/96 125/277/97 137/268/108 138/267/107
f 125/277/97 124/278/98 136/269/109 137/268/108
f 124/278/98 123/279/99 135/270/110 136/269/109
f 123/279/99 121/280/100 133/261/101 135/270/110
f 121/280/100 122/229/88 134/232/90 133/261/101
